<svg width="431" height="293" viewBox="0 0 431 293" fill="none" xmlns="http://www.w3.org/2000/svg">
<g clip-path="url(#clip0)">
<path d="M386.326 196.029C381.911 197.4 374.234 198.315 365.373 198.909C341.281 200.531 308.419 199.832 308.419 199.832C308.419 199.832 139.025 204.996 15.3469 146.291C15.3469 146.291 -2.53367 135.678 15.2031 123.586C17.9312 121.783 20.8128 120.224 23.8143 118.928L24.0336 118.73C26.0677 117.037 28.2491 115.529 30.5516 114.225C37.3222 110.329 48.643 105.884 61.9842 108.867L391.167 180.02C391.167 180.02 402.755 190.913 386.326 196.029Z" fill="#FFBA08"/>
<path d="M321.453 168.199L393.542 122.478L423.896 129.387L391.167 180.02C391.167 180.02 321.796 176.941 321.453 168.199Z" fill="#FFBA08"/>
<path d="M148.047 129.039L288.524 97.4269L310.594 103.266L246.582 128.15L225.891 149.016L148.047 129.039Z" fill="#FFBA08"/>
<path d="M365.374 198.909C341.281 200.531 308.419 199.832 308.419 199.832C308.419 199.832 139.025 204.996 15.3469 146.291C15.3469 146.291 -2.53366 135.678 15.2031 123.586L15.2482 123.828C15.2482 123.828 41.5568 143.713 171.072 165.948L365.374 198.909Z" fill="white"/>
<path d="M343.177 196.678L403.745 225.221L419.384 224.309L383.823 194.513C383.823 194.513 339.544 182.602 343.177 196.678Z" fill="#FFBA08"/>
<path d="M37.5496 127.707C34.5942 127.602 28.0883 122.289 24.0557 118.731C26.0899 117.038 28.2712 115.53 30.5738 114.226C33.829 117.009 39.6422 121.542 43.007 121.553C47.8635 121.608 42.0007 127.861 37.5496 127.707Z" fill="white"/>
<path d="M311.385 282.702L271.537 282.701L163.762 201.428L143.755 186.338L134.038 179.006C153.776 164.018 229.736 190.096 229.736 190.096C231.147 191.421 231.508 193.518 231.322 195.805C230.968 200.086 228.692 205.013 227.821 206.784C227.611 207.218 227.484 207.447 227.484 207.447L311.385 282.702Z" fill="#FFBA08"/>
</g>
<defs>
<clipPath id="clip0">
<rect width="417.147" height="270.744" fill="white" transform="translate(14.42) rotate(3)"/>
</clipPath>
</defs>
</svg>
